<svg width="20" height="18" viewBox="0 0 20 18" fill="none" xmlns="http://www.w3.org/2000/svg">
<g id="Group 15269">
<g id="Vector">
<path fill-rule="evenodd" clip-rule="evenodd" d="M9.58533 0.0334585C9.94236 -0.0229553 10.3071 -0.00684886 10.6578 0.080816C11.0084 0.168481 11.3379 0.325906 11.6263 0.543694C11.9139 0.760801 12.1549 1.03345 12.3351 1.34547L12.3368 1.3484L19.6392 13.852L19.6433 13.8593C19.8757 14.2729 19.9984 14.7392 19.9997 15.2136C20.001 15.6881 19.8808 16.155 19.6506 16.5699C19.4205 16.9848 19.088 17.3339 18.6848 17.584C18.2815 17.8341 17.821 17.9768 17.347 17.9986L17.3241 17.9997H2.69856L2.69678 17.9997C2.21433 17.9988 1.74163 17.8638 1.33154 17.6096C0.71795 17.2315 0.273733 16.6313 0.0914178 15.9339C-0.0912245 15.2352 0.00309395 14.493 0.354678 13.8622L0.359569 13.8535L7.66439 1.34565C7.88768 0.958621 8.20553 0.634613 8.58813 0.403934C8.89253 0.215324 9.23155 0.0893575 9.58533 0.0334585ZM8.52956 1.84746L9.39324 2.35183L2.09807 14.8431C2.00081 15.0218 1.97522 15.231 2.02673 15.428C2.07891 15.6276 2.20619 15.7993 2.38199 15.9073L2.3853 15.9094C2.47971 15.9679 2.5885 15.9991 2.69957 15.9994H17.2734C17.3999 15.9906 17.5225 15.9511 17.6304 15.8841C17.7435 15.8139 17.8368 15.716 17.9014 15.5996C17.966 15.4832 17.9997 15.3522 17.9993 15.2191C17.999 15.0882 17.9657 14.9595 17.9026 14.8449L10.6033 2.34652C10.557 2.26617 10.4951 2.19596 10.4211 2.1401C10.3471 2.08423 10.2626 2.04385 10.1726 2.02137C10.0827 1.99888 9.98911 1.99475 9.89753 2.00922C9.80595 2.02369 9.71822 2.05647 9.63959 2.10559L9.63134 2.11075L9.62298 2.11574C9.52908 2.17189 9.45114 2.25117 9.3966 2.34602L8.52956 1.84746Z" fill="#121212"/>
<path fill-rule="evenodd" clip-rule="evenodd" d="M10.9998 5.38794V10.9287H8.99947V5.38794H10.9998Z" fill="#121212"/>
<path fill-rule="evenodd" clip-rule="evenodd" d="M8.99947 12.4592H11.0098V14.4595H8.99947V12.4592Z" fill="#121212"/>
</g>
</g>
</svg>
