<svg width="16" height="16" viewBox="0 0 16 16" fill="none" xmlns="http://www.w3.org/2000/svg">
<path fill-rule="evenodd" clip-rule="evenodd" d="M7.99992 2.00016C4.68621 2.00016 1.99992 4.68645 1.99992 8.00016C1.99992 11.3139 4.68621 14.0002 7.99992 14.0002C11.3136 14.0002 13.9999 11.3139 13.9999 8.00016C13.9999 4.68645 11.3136 2.00016 7.99992 2.00016ZM1.33325 8.00016C1.33325 4.31826 4.31802 1.3335 7.99992 1.3335C11.6818 1.3335 14.6666 4.31826 14.6666 8.00016C14.6666 11.6821 11.6818 14.6668 7.99992 14.6668C4.31802 14.6668 1.33325 11.6821 1.33325 8.00016Z" fill="#1B65F8"/>
<path fill-rule="evenodd" clip-rule="evenodd" d="M7.99992 13.3335C10.9454 13.3335 13.3333 10.9457 13.3333 8.00016C13.3333 5.05464 10.9454 2.66683 7.99992 2.66683C5.0544 2.66683 2.66659 5.05464 2.66659 8.00016C2.66659 10.9457 5.0544 13.3335 7.99992 13.3335ZM14.6666 8.00016C14.6666 11.6821 11.6818 14.6668 7.99992 14.6668C4.31802 14.6668 1.33325 11.6821 1.33325 8.00016C1.33325 4.31826 4.31802 1.3335 7.99992 1.3335C11.6818 1.3335 14.6666 4.31826 14.6666 8.00016Z" fill="#1B65F8"/>
<path fill-rule="evenodd" clip-rule="evenodd" d="M8.66059 4.66943V9.33609H7.32725V4.66943H8.66059Z" fill="#1B65F8"/>
<path fill-rule="evenodd" clip-rule="evenodd" d="M8.66659 11.3361H7.32725V10.0028H8.66659V11.3361Z" fill="#1B65F8"/>
</svg>
