<svg width="24" height="24" viewBox="0 0 24 24" fill="none" xmlns="http://www.w3.org/2000/svg">
<g id="Mask Group 17852">
<g id="Layer 1">
<g id="Group 17726">
<g id="Vector">
<path d="M15.0002 19.0015H9.00023V17.0015H15.0002V19.0015Z" fill="#121212"/>
<path d="M12.0002 4.00152C13.5498 3.96253 15.0517 4.53963 16.1764 5.60627C17.3012 6.6729 17.957 8.14203 18.0002 9.69152C17.9938 10.5201 17.8029 11.3368 17.4414 12.0823C17.0799 12.8278 16.5568 13.4834 15.9102 14.0015H8.08023C7.43363 13.4834 6.91056 12.8278 6.54904 12.0823C6.18752 11.3368 5.99663 10.5201 5.99023 9.69152C6.03343 8.14203 6.68931 6.6729 7.81406 5.60627C8.93881 4.53963 10.4406 3.96253 11.9902 4.00152M11.9902 2.00152C9.90965 1.96054 7.89798 2.74768 6.39772 4.18981C4.89745 5.63194 4.03147 7.61094 3.99023 9.69152C3.99836 10.9444 4.31568 12.1758 4.91403 13.2766C5.51239 14.3774 6.37326 15.3134 7.42023 16.0015H16.5602C17.6072 15.3134 18.4681 14.3774 19.0664 13.2766C19.6648 12.1758 19.9821 10.9444 19.9902 9.69152C19.949 7.61094 19.083 5.63194 17.5828 4.18981C16.0825 2.74768 14.0708 1.96054 11.9902 2.00152Z" fill="#121212"/>
<path d="M14.0002 20.0015C13.9987 20.5315 13.7874 21.0393 13.4127 21.414C13.038 21.7887 12.5302 21.9999 12.0002 22.0015C11.4703 21.9999 10.9625 21.7887 10.5878 21.414C10.213 21.0393 10.0018 20.5315 10.0002 20.0015H14.0002Z" fill="#121212"/>
</g>
</g>
</g>
</g>
</svg>
