<svg width="24" height="24" viewBox="0 0 24 24" fill="none" xmlns="http://www.w3.org/2000/svg">
<g id="Common/Document/Filled">
<path id="Vector" d="M13.8008 3H6.60078C6.1242 3.00263 5.66789 3.19311 5.33089 3.53011C4.99389 3.86711 4.80341 4.32342 4.80078 4.8V19.2C4.80078 19.4364 4.84734 19.6704 4.9378 19.8888C5.02826 20.1072 5.16084 20.3056 5.32799 20.4728C5.49513 20.6399 5.69357 20.7725 5.91195 20.863C6.13034 20.9534 6.3644 21 6.60078 21H17.4008C17.6375 21.0013 17.8722 20.9557 18.0912 20.8657C18.3102 20.7757 18.5091 20.6432 18.6765 20.4757C18.8439 20.3083 18.9765 20.1094 19.0665 19.8904C19.1565 19.6714 19.2021 19.4368 19.2008 19.2V8.4M13.8008 3L19.2008 8.4M13.8008 3V8.4H19.2008M15.3408 13.5H8.67078M15.3408 16.83H8.67078M10.3408 10.17H8.67078" stroke="#121212" stroke-width="2" stroke-linecap="square" stroke-linejoin="round"/>
</g>
</svg>
