<svg width="24" height="24" viewBox="0 0 24 24" fill="none" xmlns="http://www.w3.org/2000/svg">
<g id="Common/Created By">
<path id="Vector " fill-rule="evenodd" clip-rule="evenodd" d="M19.0357 4.16214C18.8539 4.08757 18.6589 4.05019 18.4624 4.05224C18.2658 4.05429 18.0717 4.09572 17.8915 4.17406C17.7113 4.2524 17.5487 4.36606 17.4133 4.50827L17.4046 4.5175L17.0576 4.86429L19.13 6.93852L19.4678 6.60144L19.4804 6.5897C19.6239 6.45573 19.7391 6.29437 19.8191 6.11518C19.899 5.936 19.9422 5.74263 19.9459 5.54652C19.9497 5.35041 19.914 5.15553 19.841 4.97343C19.768 4.79132 19.6591 4.62567 19.5208 4.48631C19.3824 4.34695 19.2175 4.2367 19.0357 4.16214ZM17.6768 8.38869L15.6057 6.31572L5.69723 16.2207L4.92656 19.0591L7.77561 18.2693L17.6768 8.38869ZM18.441 2.00019C18.9122 1.99528 19.3797 2.08488 19.8156 2.26369C20.2516 2.44251 20.6472 2.70691 20.979 3.04126C21.3109 3.3756 21.5722 3.77309 21.7475 4.21019C21.9227 4.64729 22.0084 5.11509 21.9994 5.58588C21.9903 6.05667 21.8868 6.52084 21.6949 6.9509C21.5055 7.37527 21.2339 7.75789 20.8958 8.07674L8.84492 20.1026L2 22L3.8582 15.1562L15.9347 3.08395C16.2576 2.74743 16.6442 2.47832 17.0721 2.2923C17.5042 2.10443 17.9697 2.0051 18.441 2.00019Z" fill="#121212"/>
</g>
</svg>
