<svg width="40" height="40" viewBox="0 0 40 40" fill="none" xmlns="http://www.w3.org/2000/svg">
<path d="M14 11H25V24L18 31L16.75 29.75C16.6333 29.6333 16.5375 29.475 16.4625 29.275C16.3875 29.075 16.35 28.8833 16.35 28.7V28.35L17.45 24H11C10.4667 24 10 23.8 9.6 23.4C9.2 23 9 22.5333 9 22V20C9 19.8833 9.01667 19.7583 9.05 19.625C9.08333 19.4917 9.11667 19.3667 9.15 19.25L12.15 12.2C12.3 11.8667 12.55 11.5833 12.9 11.35C13.25 11.1167 13.6167 11 14 11ZM23 13H14L11 20V22H20L18.65 27.5L23 23.15V13ZM25 24V22H28V13H25V11H30V24H25Z" fill="#525252"/>
</svg>
