<svg width="40" height="40" viewBox="0 0 40 40" fill="none" xmlns="http://www.w3.org/2000/svg">
<path d="M26 29H15V16L22 9L23.25 10.25C23.3667 10.3667 23.4625 10.525 23.5375 10.725C23.6125 10.925 23.65 11.1167 23.65 11.3V11.65L22.55 16H29C29.5333 16 30 16.2 30.4 16.6C30.8 17 31 17.4667 31 18V20C31 20.1167 30.9833 20.2417 30.95 20.375C30.9167 20.5083 30.8833 20.6333 30.85 20.75L27.85 27.8C27.7 28.1333 27.45 28.4167 27.1 28.65C26.75 28.8833 26.3833 29 26 29ZM17 27H26L29 20V18H20L21.35 12.5L17 16.85V27ZM15 16V18H12V27H15V29H10V16H15Z" fill="#525252"/>
</svg>
